# xmcd CD database file
#
# Track frame offsets:
#	150
#	16795
#	33165
#	50847
#	69057
#	88060
#	103337
#	119215
#
# Disc length: 1850 seconds
#
# Revision: 0
# Processed by: cddbd v1.4PL0 Copyright (c) Steve Scherf et al.
# Submitted via: CDex 1.51
#
DISCID=68073808
DTITLE=Joe Meyer - Joe Meyer
DYEAR=1900
DGENRE=Country
TTITLE0=I May Not Be
TTITLE1=Dad Told Me
TTITLE2=The Proposal
TTITLE3=Precious Past
TTITLE4=A Dime For Everything
TTITLE5=Mother
TTITLE6=(She'd) Never Be Mine
TTITLE7=If You Were Me
EXTD=
EXTT0=
EXTT1=
EXTT2=
EXTT3=
EXTT4=
EXTT5=
EXTT6=
EXTT7=
PLAYORDER=
